<svg width="24" height="24" viewBox="0 0 24 24" fill="none" xmlns="http://www.w3.org/2000/svg">
<path d="M4.98292 7.1968C6.19132 7.1968 7.17092 6.2172 7.17092 5.0088C7.17092 3.8004 6.19132 2.8208 4.98292 2.8208C3.77452 2.8208 2.79492 3.8004 2.79492 5.0088C2.79492 6.2172 3.77452 7.1968 4.98292 7.1968Z" fill="#fff"/>
<path d="M9.23575 8.85518V20.9942H13.0047V14.9912C13.0047 13.4072 13.3027 11.8732 15.2667 11.8732C17.2037 11.8732 17.2277 13.6842 17.2277 15.0912V20.9952H20.9988V14.3382C20.9988 11.0682 20.2948 8.55518 16.4728 8.55518C14.6378 8.55518 13.4077 9.56218 12.9047 10.5152H12.8537V8.85518H9.23575V8.85518ZM3.09375 8.85518H6.86875V20.9942H3.09375V8.85518Z" fill="#fff"/>
</svg>
