<svg width="24" height="24" viewBox="0 0 24 24" fill="none" xmlns="http://www.w3.org/2000/svg">
<path d="M22.5 11.9345C22.5 11.8829 22.5 11.8243 22.4977 11.7564C22.4953 11.5665 22.4906 11.3532 22.4859 11.1259C22.4672 10.472 22.4344 9.82042 22.3828 9.20636C22.3125 8.36026 22.2094 7.65479 22.0687 7.1251C21.9204 6.57233 21.6295 6.06818 21.2252 5.66306C20.8209 5.25794 20.3173 4.96603 19.7648 4.8165C19.1016 4.63838 17.8031 4.52822 15.975 4.46025C15.1055 4.42744 14.175 4.40635 13.2445 4.39463C12.9187 4.38994 12.6164 4.3876 12.3445 4.38525H11.6555C11.3836 4.3876 11.0812 4.38994 10.7555 4.39463C9.825 4.40635 8.89453 4.42744 8.025 4.46025C6.19687 4.53057 4.89609 4.64072 4.23516 4.8165C3.6825 4.96566 3.17876 5.25745 2.7744 5.66263C2.37004 6.06781 2.07928 6.57215 1.93125 7.1251C1.78828 7.65479 1.6875 8.36026 1.61719 9.20636C1.56562 9.82042 1.53281 10.472 1.51406 11.1259C1.50703 11.3532 1.50469 11.5665 1.50234 11.7564C1.50234 11.8243 1.5 11.8829 1.5 11.9345V12.0657C1.5 12.1173 1.5 12.1759 1.50234 12.2439C1.50469 12.4337 1.50937 12.647 1.51406 12.8743C1.53281 13.5282 1.56562 14.1798 1.61719 14.7939C1.6875 15.64 1.79063 16.3454 1.93125 16.8751C2.23125 17.9978 3.1125 18.8837 4.23516 19.1837C4.89609 19.3618 6.19687 19.472 8.025 19.54C8.89453 19.5728 9.825 19.5939 10.7555 19.6056C11.0812 19.6103 11.3836 19.6126 11.6555 19.615H12.3445C12.6164 19.6126 12.9187 19.6103 13.2445 19.6056C14.175 19.5939 15.1055 19.5728 15.975 19.54C17.8031 19.4697 19.1039 19.3595 19.7648 19.1837C20.8875 18.8837 21.7687 18.0001 22.0687 16.8751C22.2117 16.3454 22.3125 15.64 22.3828 14.7939C22.4344 14.1798 22.4672 13.5282 22.4859 12.8743C22.493 12.647 22.4953 12.4337 22.4977 12.2439C22.4977 12.1759 22.5 12.1173 22.5 12.0657V11.9345V11.9345ZM20.8125 12.0564C20.8125 12.1056 20.8125 12.1595 20.8102 12.2228C20.8078 12.4056 20.8031 12.6071 20.7984 12.8251C20.782 13.4486 20.7492 14.072 20.7 14.6509C20.6367 15.4056 20.5477 16.0243 20.4375 16.4392C20.2922 16.9806 19.8656 17.4095 19.3266 17.5525C18.8344 17.6837 17.5945 17.7892 15.9094 17.8525C15.0562 17.8853 14.1375 17.9064 13.2211 17.9181C12.9 17.9228 12.6023 17.9251 12.3352 17.9251H11.6648L10.7789 17.9181C9.8625 17.9064 8.94609 17.8853 8.09063 17.8525C6.40547 17.7868 5.16328 17.6837 4.67344 17.5525C4.13437 17.4072 3.70781 16.9806 3.5625 16.4392C3.45234 16.0243 3.36328 15.4056 3.3 14.6509C3.25078 14.072 3.22031 13.4486 3.20156 12.8251C3.19453 12.6071 3.19219 12.4032 3.18984 12.2228C3.18984 12.1595 3.1875 12.1032 3.1875 12.0564V11.9439C3.1875 11.8946 3.1875 11.8407 3.18984 11.7775C3.19219 11.5946 3.19688 11.3931 3.20156 11.1751C3.21797 10.5517 3.25078 9.92823 3.3 9.34933C3.36328 8.59464 3.45234 7.97589 3.5625 7.56104C3.70781 7.01963 4.13437 6.59073 4.67344 6.44776C5.16562 6.31651 6.40547 6.21104 8.09063 6.14776C8.94375 6.11494 9.8625 6.09385 10.7789 6.08213C11.1 6.07744 11.3977 6.0751 11.6648 6.0751H12.3352L13.2211 6.08213C14.1375 6.09385 15.0539 6.11494 15.9094 6.14776C17.5945 6.21338 18.8367 6.31651 19.3266 6.44776C19.8656 6.59307 20.2922 7.01963 20.4375 7.56104C20.5477 7.97589 20.6367 8.59464 20.7 9.34933C20.7492 9.92823 20.7797 10.5517 20.7984 11.1751C20.8055 11.3931 20.8078 11.597 20.8102 11.7775C20.8102 11.8407 20.8125 11.897 20.8125 11.9439V12.0564ZM9.91406 15.1407L15.3516 11.9767L9.91406 8.85948V15.1407Z" fill="white"/>
</svg>
